@startuml
' IE Notation
!define table(x) class x << (T,#FFAAAA) >>
!define primary_key(x) <b>x</b>
!define foreign_key(x) <i>x</i>

table(vets) {
  primary_key(id) INT
  first_name TEXT
  last_name TEXT
}

table(specialties) {
  primary_key(id) INT
  name TEXT
}

table(vet_specialties) {
  foreign_key(vet_id) INT
  foreign_key(specialty_id) INT
}

table(types) {
  primary_key(id) INT
  name TEXT
}

table(owners) {
  primary_key(id) INT
  first_name TEXT
  last_name TEXT
  address TEXT
  city TEXT
  telephone TEXT
}

table(pets) {
  primary_key(id) INT
  name TEXT
  birth_date DATE
  foreign_key(type_id) INT
  foreign_key(owner_id) INT
}

table(visits) {
  primary_key(id) INT
  foreign_key(pet_id) INT
  visit_date DATE
  description TEXT
}

' Relationships
vets ||--o{ vet_specialties
specialties ||--o{ vet_specialties
types ||--o{ pets
owners ||--o{ pets
pets ||--o{ visits

@enduml